<?xml version="1.0" encoding="utf-8"?>
<!-- Generator: Adobe Illustrator 15.0.0, SVG Export Plug-In . SVG Version: 6.00 Build 0)  -->
<!DOCTYPE svg PUBLIC "-//W3C//DTD SVG 1.1//EN" "http://www.w3.org/Graphics/SVG/1.1/DTD/svg11.dtd">
<svg version="1.1" id="Layer_1" xmlns="http://www.w3.org/2000/svg" xmlns:xlink="http://www.w3.org/1999/xlink" x="0px" y="0px"
	 width="30px" height="30px" viewBox="0 0 30 30" enable-background="new 0 0 30 30" xml:space="preserve">
<path fill="#5473AC" d="M15,0.021c-8.273,0-14.979,6.708-14.979,14.98c0,8.272,6.706,14.978,14.979,14.978
	c8.271,0,14.979-6.705,14.979-14.977C29.979,6.73,23.271,0.021,15,0.021z M18.963,14.939h-2.592c0,4.143,0,9.249,0,9.249h-3.845
	c0,0,0-5.053,0-9.249h-1.829v-3.267h1.829V9.556c0-1.515,0.718-3.879,3.88-3.879l2.846,0.011V8.86c0,0-1.73,0-2.066,0
	c-0.338,0-0.813,0.168-0.813,0.889v1.924h2.93L18.963,14.939z"/>
</svg>
