<?xml version="1.0" encoding="utf-8"?>
<!-- Generator: Adobe Illustrator 15.0.0, SVG Export Plug-In . SVG Version: 6.00 Build 0)  -->
<!DOCTYPE svg PUBLIC "-//W3C//DTD SVG 1.1//EN" "http://www.w3.org/Graphics/SVG/1.1/DTD/svg11.dtd">
<svg version="1.1" id="Layer_1" xmlns="http://www.w3.org/2000/svg" xmlns:xlink="http://www.w3.org/1999/xlink" x="0px" y="0px"
	 width="30px" height="30px" viewBox="0 0 30 30" enable-background="new 0 0 30 30" xml:space="preserve">
<path fill="#5473AC" d="M15,0.031C6.733,0.031,0.031,6.733,0.031,15c0,8.268,6.702,14.969,14.969,14.969
	c8.268,0,14.969-6.701,14.969-14.969C29.969,6.733,23.268,0.031,15,0.031z M13.383,20.355c-2.864,0-5.187-2.326-5.187-5.195
	s2.323-5.195,5.187-5.195c1.344,0,2.569,0.512,3.489,1.353c-1.085,1.026-1.049,1.088-1.476,1.515
	c-0.533-0.441-1.114-0.759-2.014-0.759c-1.703,0-3.03,1.382-3.03,3.087c0,1.706,1.327,3.087,3.03,3.087
	c1.682,0,2.364-0.729,2.806-2.063c-0.813,0-2.806,0.004-2.806,0.004v-2.06h4.979C18.711,16.621,17.663,20.355,13.383,20.355z
	 M24.525,15.521h-1.797v1.852h-1.283v-1.852h-1.85v-1.289h1.85v-1.799h1.283v1.799h1.797V15.521z"/>
</svg>
