<?xml version="1.0" encoding="utf-8"?>
<!-- Generator: Adobe Illustrator 15.0.0, SVG Export Plug-In . SVG Version: 6.00 Build 0)  -->
<!DOCTYPE svg PUBLIC "-//W3C//DTD SVG 1.1//EN" "http://www.w3.org/Graphics/SVG/1.1/DTD/svg11.dtd">
<svg version="1.1" id="Layer_1" xmlns="http://www.w3.org/2000/svg" xmlns:xlink="http://www.w3.org/1999/xlink" x="0px" y="0px"
	 width="30px" height="30px" viewBox="0 0 30 30" enable-background="new 0 0 30 30" xml:space="preserve">
<path fill="#5473AC" d="M23.467,22.114v-5.868c0-3.143-1.678-4.606-3.916-4.606c-1.806,0-2.613,0.994-3.064,1.69v-1.45h-3.401
	c0.045,0.96,0,10.235,0,10.235h3.401v-5.717c0-0.307,0.021-0.61,0.111-0.828c0.245-0.612,0.805-1.244,1.744-1.244
	c1.231,0,1.725,0.938,1.725,2.314v5.476L23.467,22.114L23.467,22.114z M9.499,10.482c1.186,0,1.925-0.786,1.925-1.769
	c-0.021-1.003-0.739-1.768-1.902-1.768S7.597,7.709,7.597,8.713c0,0.983,0.738,1.769,1.88,1.769H9.499z M15.031,30.063
	C6.73,30.063,0,23.332,0,15.031C0,6.73,6.73,0,15.031,0c8.301,0,15.031,6.73,15.031,15.031
	C30.063,23.332,23.332,30.063,15.031,30.063z M11.2,22.114V11.879H7.798v10.235H11.2z"/>
</svg>
