<?xml version="1.0" encoding="utf-8"?>
<!-- Generator: Adobe Illustrator 15.0.0, SVG Export Plug-In . SVG Version: 6.00 Build 0)  -->
<!DOCTYPE svg PUBLIC "-//W3C//DTD SVG 1.1//EN" "http://www.w3.org/Graphics/SVG/1.1/DTD/svg11.dtd">
<svg version="1.1" id="Layer_1" xmlns="http://www.w3.org/2000/svg" xmlns:xlink="http://www.w3.org/1999/xlink" x="0px" y="0px"
	 width="30px" height="30px" viewBox="0 0 30 30" enable-background="new 0 0 30 30" xml:space="preserve">
<path fill="#5473AC" d="M15,0.042C6.738,0.042,0.042,6.74,0.042,15c0,8.261,6.696,14.957,14.958,14.957
	c8.261,0,14.957-6.696,14.957-14.957C29.957,6.74,23.261,0.042,15,0.042z M22.534,11.984c0.009,0.161,0.012,0.323,0.012,0.487
	c0,4.981-3.792,10.726-10.726,10.726c-2.128,0-4.11-0.624-5.778-1.693c0.295,0.034,0.595,0.053,0.898,0.053
	c1.767,0,3.393-0.604,4.682-1.613c-1.649-0.028-3.041-1.119-3.521-2.616c0.229,0.045,0.466,0.065,0.709,0.065
	c0.344,0,0.677-0.045,0.993-0.133c-1.726-0.346-3.024-1.871-3.024-3.696c0-0.016,0-0.032,0.001-0.049
	c0.508,0.283,1.089,0.452,1.707,0.473C7.475,13.31,6.81,12.159,6.81,10.85c0-0.69,0.186-1.339,0.51-1.896
	c1.859,2.28,4.637,3.781,7.771,3.938c-0.064-0.275-0.098-0.564-0.098-0.859c0-2.081,1.688-3.77,3.771-3.77
	c1.084,0,2.063,0.458,2.75,1.19c0.859-0.169,1.666-0.483,2.396-0.915c-0.283,0.881-0.881,1.62-1.658,2.085
	c0.764-0.091,1.489-0.293,2.165-0.593C23.911,10.789,23.271,11.452,22.534,11.984z"/>
</svg>
