<?xml version="1.0" encoding="utf-8"?>
<!-- Generator: Adobe Illustrator 15.0.0, SVG Export Plug-In . SVG Version: 6.00 Build 0)  -->
<!DOCTYPE svg PUBLIC "-//W3C//DTD SVG 1.1//EN" "http://www.w3.org/Graphics/SVG/1.1/DTD/svg11.dtd">
<svg version="1.1" id="Layer_1" xmlns="http://www.w3.org/2000/svg" xmlns:xlink="http://www.w3.org/1999/xlink" x="0px" y="0px"
	 width="30px" height="30px" viewBox="0 0 30 30" enable-background="new 0 0 30 30" xml:space="preserve">
<title></title>
<desc></desc>
<g id="slice" transform="translate(215.000000, 119.000000)">
</g>
<g>
	<path fill="#5473AC" d="M17.447,17.932c-0.15,0-0.571,0.035-0.719,0.107c-0.146,0.07-0.285,0.177-0.416,0.313v-2.091h-0.979v6.233
		h0.979v-0.346c0.127,0.14,0.267,0.24,0.414,0.306c0.146,0.065,0.588,0.098,0.777,0.098c0.287,0,0.51-0.208,0.658-0.378
		c0.15-0.172,0.229-0.416,0.229-0.734v-2.5c0-0.369-0.08-0.649-0.244-0.844C17.988,17.902,17.754,17.932,17.447,17.932z
		 M17.395,21.439c0,0.145-0.027,0.246-0.084,0.311s-0.414,0.098-0.533,0.098c-0.082,0-0.157-0.019-0.232-0.05
		c-0.072-0.032-0.15-0.088-0.229-0.159v-2.81c0.064-0.062,0.133-0.108,0.199-0.138c0.066-0.03,0.137-0.043,0.207-0.043
		c0.129,0,0.502,0.039,0.571,0.115c0.067,0.078,0.104,0.193,0.104,0.348v2.328H17.395z"/>
	<path fill="#5473AC" d="M13.364,17.986v3.424c-0.091,0.098-0.19,0.179-0.3,0.242c-0.109,0.063-0.2,0.094-0.27,0.094
		c-0.091,0-0.157-0.021-0.199-0.071c-0.039-0.047-0.06-0.124-0.06-0.229v-3.459h-0.969v3.771c0,0.271,0.058,0.472,0.17,0.604
		c0.115,0.136,0.282,0.201,0.507,0.201c0.182,0,0.369-0.045,0.563-0.146c0.194-0.094,0.38-0.231,0.56-0.416v0.494h0.969v-4.509
		H13.364L13.364,17.986z"/>
	<path fill="#5473AC" d="M14.837,12.458c0.143,0,0.255-0.04,0.34-0.119c0.084-0.08,0.126-0.19,0.126-0.329V9.18
		c0-0.113-0.043-0.205-0.128-0.276C15.089,8.835,14.977,8.8,14.837,8.8c-0.128,0-0.231,0.034-0.313,0.104
		c-0.08,0.071-0.12,0.163-0.12,0.276l0,0v2.831c0,0.143,0.038,0.252,0.112,0.33C14.591,12.42,14.698,12.458,14.837,12.458z"/>
	<polygon fill="#5473AC" points="8.088,17.05 9.217,17.05 9.217,22.271 10.31,22.271 10.31,17.05 11.439,17.05 11.439,16.161 
		8.088,16.161 	"/>
	<path fill="#5473AC" d="M20.537,17.801c-0.436,0-0.787,0.122-1.061,0.368c-0.275,0.246-0.414,0.565-0.414,0.956v2.023
		c0,0.436,0.127,0.775,0.375,1.021c0.25,0.248,0.592,0.371,1.024,0.371c0.481,0,0.847-0.116,1.087-0.35
		c0.245-0.233,0.365-0.584,0.365-1.045v-0.23H20.92v0.205c0,0.268-0.034,0.438-0.097,0.515c-0.064,0.077-0.177,0.116-0.337,0.116
		c-0.155,0-0.264-0.044-0.329-0.137c-0.063-0.094-0.095-0.258-0.095-0.494v-0.85h1.854l0,0v-1.148c0-0.43-0.118-0.754-0.355-0.98
		C21.322,17.914,20.98,17.801,20.537,17.801z M20.92,19.573h-0.857v-0.456c0-0.189,0.033-0.324,0.103-0.403
		c0.065-0.085,0.177-0.125,0.332-0.125c0.146,0,0.257,0.04,0.321,0.125c0.066,0.079,0.104,0.214,0.104,0.403L20.92,19.573
		L20.92,19.573z"/>
	<path fill="#5473AC" d="M15,0C6.716,0,0,6.716,0,15s6.716,15,15,15s15-6.716,15-15S23.284,0,15,0z M17.201,8.032h1.05v3.984
		c0,0.122,0.024,0.211,0.067,0.266c0.043,0.056,0.115,0.083,0.215,0.083c0.076,0,0.175-0.036,0.293-0.109
		c0.117-0.074,0.227-0.167,0.324-0.28V8.032h1.052v5.196H19.15v-0.575c-0.192,0.212-0.396,0.374-0.605,0.485
		c-0.209,0.109-0.412,0.167-0.609,0.167c-0.244,0-0.427-0.079-0.551-0.235c-0.121-0.153-0.184-0.385-0.184-0.695V8.032z
		 M13.323,9.22c0-0.404,0.141-0.723,0.424-0.962C14.029,8.02,14.411,7.9,14.889,7.9c0.435,0,0.791,0.126,1.07,0.377
		c0.275,0.251,0.416,0.576,0.416,0.972v2.685c0,0.445-0.137,0.792-0.408,1.046c-0.273,0.253-0.648,0.379-1.126,0.379
		c-0.46,0-0.829-0.131-1.104-0.392c-0.275-0.262-0.414-0.612-0.414-1.054V9.22z M10.458,5.77l0.769,2.815h0.075l0.733-2.815h1.203
		L11.86,9.892v3.336h-1.184l0,0v-3.205L9.266,5.77H10.458z M24.23,20.879c0,1.852-1.51,3.352-3.373,3.352H9.142
		c-1.863,0-3.372-1.5-3.372-3.352v-3.23c0-1.851,1.509-3.226,3.372-3.226h11.717c1.861,0,3.371,1.4,3.371,3.251V20.879L24.23,20.879
		z"/>
</g>
</svg>
